<?xml version="1.0" standalone="no"?>
<!DOCTYPE svg PUBLIC "-//W3C//DTD SVG 20010904//EN"
 "http://www.w3.org/TR/2001/REC-SVG-20010904/DTD/svg10.dtd">
<svg version="1.0" xmlns="http://www.w3.org/2000/svg"
 width="300.000000pt" height="276.000000pt" viewBox="0 0 300.000000 276.000000"
 preserveAspectRatio="xMidYMid meet">

<g transform="translate(0.000000,276.000000) scale(0.100000,-0.100000)"
fill="#bea994" stroke="none">
<path d="M1949 2736 c-65 -17 -128 -57 -180 -113 -66 -70 -95 -117 -130 -213
-27 -71 -33 -103 -37 -197 -4 -95 -1 -122 18 -185 42 -138 112 -220 216 -253
120 -38 228 -3 338 108 113 114 176 271 176 436 0 152 -45 267 -137 351 -81
74 -161 94 -264 66z"/>
<path d="M869 2725 c-107 -34 -204 -169 -230 -319 -37 -218 62 -471 229 -581
57 -38 148 -57 210 -45 68 13 97 29 154 85 260 257 84 847 -260 871 -34 2 -76
-2 -103 -11z"/>
<path d="M195 1983 c-109 -37 -182 -155 -192 -308 -5 -71 -2 -90 26 -172 36
-110 66 -159 137 -231 128 -127 304 -147 422 -46 52 44 88 118 104 212 11 63
10 85 -5 155 -57 278 -287 460 -492 390z"/>
<path d="M2633 1985 c-84 -23 -134 -53 -198 -119 -103 -105 -155 -231 -156
-371 0 -134 45 -235 128 -289 164 -105 384 -22 514 194 43 71 79 194 79 271
-1 219 -175 368 -367 314z"/>
<path d="M1392 1670 c-72 -11 -151 -52 -219 -113 -53 -49 -93 -99 -273 -347
-41 -57 -134 -163 -206 -234 -145 -146 -200 -225 -241 -353 -32 -98 -37 -230
-11 -314 38 -122 143 -237 256 -280 114 -43 206 -35 511 45 207 55 314 55 521
-1 305 -81 361 -87 471 -53 125 38 231 128 282 238 24 54 31 84 35 156 3 51
-1 112 -8 145 -29 133 -141 310 -259 411 -80 68 -161 168 -278 345 -112 168
-188 254 -263 298 -79 46 -220 71 -318 57z"/>
</g>
</svg>
