<?xml version="1.0" standalone="no"?>
<!DOCTYPE svg PUBLIC "-//W3C//DTD SVG 20010904//EN"
 "http://www.w3.org/TR/2001/REC-SVG-20010904/DTD/svg10.dtd">
<svg version="1.0" xmlns="http://www.w3.org/2000/svg"
 width="512.000000pt" height="512.000000pt" viewBox="0 0 512.000000 512.000000"
 preserveAspectRatio="xMidYMid meet">

<g transform="translate(0.000000,512.000000) scale(0.100000,-0.100000)"
fill="#bea994" stroke="none">
<path d="M2535 4920 c-22 -4 -53 -14 -70 -22 -16 -9 -575 -563 -1241 -1230
-1289 -1290 -1224 -1221 -1224 -1315 0 -65 75 -166 133 -177 58 -12 82 -13
120 -3 38 9 152 119 1175 1141 l1132 1131 1133 -1131 c1061 -1060 1135 -1132
1177 -1142 25 -6 55 -9 65 -7 11 2 32 6 48 10 37 7 105 70 123 113 19 47 17
109 -5 157 -13 28 -392 412 -1232 1251 -1323 1320 -1234 1239 -1334 1224z"/>
<path d="M1572 3047 l-983 -983 3 -679 3 -680 23 -56 c30 -74 82 -139 146
-184 99 -68 103 -69 578 -73 l427 -3 3 653 c4 746 2 723 95 900 100 190 269
326 488 394 86 26 324 26 410 0 219 -68 388 -204 488 -394 93 -177 91 -154 95
-900 l3 -653 427 3 c475 4 479 5 578 73 64 45 116 110 146 184 l23 56 3 680 3
679 -983 983 c-541 541 -985 983 -988 983 -3 0 -447 -442 -988 -983z"/>
</g>
</svg>
